<svg height="250" viewBox="0 0 512 512" width="250" xmlns="http://www.w3.org/2000/svg"><g id="BULINE"><circle cx="256" cy="256" fill="#7ec1ec" r="256"/></g><g id="Icons"><path d="m494.18 350c-37.47 94.87-130 162-238.18 162a256.26 256.26 0 0 1 -238.18-162h29s13.12-15.1 1.12-38.12a1.47 1.47 0 0 1 2-2c6.67 3.31 19.17 11.09 20.7 23.33 0 0 9.82-23.93 29.45-38.46a1.48 1.48 0 0 1 2.27 1.72c-3.92 10-12.45 33.6-8.64 42.33 0 0 10.8-3.92 15.51-14.05a1.47 1.47 0 0 1 2.73.17c2 6.45 5 19.11-.31 25.09h138.7a3.56 3.56 0 0 0 .14-.34c.39-1.07 1.33-4.61-1.26-9.24a24.18 24.18 0 0 0 -6.1-6.85 1.22 1.22 0 0 1 .42-2.14 37.81 37.81 0 0 1 5.47-1.07c4-.48 8.92-.36 13.23 1.79 0 0 4.86-15.53 14.61-26.7a1.22 1.22 0 0 1 2.13.8c0 7.5.8 26.29 7.58 31.84 0 0 7.73-10.54 17.1-12.72a1.22 1.22 0 0 1 1.33 1.92c-3.45 4.52-10.54 14.79-10.54 22.71h105c-7.32-8.23 1.06-29 1.06-29 2.11 8 8 12.88 12.25 15.49l.11.06q.75.45 1.41.81a24.61 24.61 0 0 0 3.1 1.46c1.87-4.28.78-12.14-1.29-20.21-.51-2-1.08-4-1.68-6-2-6.62-4.35-12.81-5.88-16.65-1-2.5-1.64-4-1.64-4a62.92 62.92 0 0 1 5.31 3.72c.85.65 1.68 1.33 2.49 2 1.13.94 2.21 1.93 3.26 2.93.59.57 1.17 1.14 1.74 1.72a90.8 90.8 0 0 1 6.95 7.9 108.91 108.91 0 0 1 7.29 10.52l.55.91a96.32 96.32 0 0 1 6 11.54 21.93 21.93 0 0 1 3.47-9.2 30 30 0 0 1 3.36-4.23 40 40 0 0 1 4.58-4.12 52.13 52.13 0 0 1 6.28-4.18 2.55 2.55 0 0 1 3.58 3.26c-9.55 21.41 2.5 35.27 2.5 35.27z" fill="#6b862d"/><path d="m405.83 428.91a19.37 19.37 0 0 1 -2.06 8.55c-13.82 28.63-95.95 50.63-195.22 50.63a621 621 0 0 1 -68.18-3.64 257.11 257.11 0 0 1 -98.05-87.45c19.75-9.26 47.86-16.75 81.12-21.52q12.62-1.81 26.15-3.09c7.88-.75 16-1.35 24.25-1.79l2.17-.11 2.39-.12q6.28-.28 12.68-.45l2.6-.06c2.74-.06 5.5-.11 8.27-.13h6.59c9.84 0 19.51.22 29 .63 6.7.3 13.3.7 19.76 1.19 65.76 5 118.34 19.93 139 39.15a34.47 34.47 0 0 1 6.89 8.51 20.13 20.13 0 0 1 2.62 9.27c.02.13.02.28.02.43z" fill="#5f7629"/><ellipse cx="287.15" cy="390.91" fill="#556826" rx="180" ry="37.01"/><path d="m466.52 263.63c0 7.29 5.91 41.22 13.19 41.22s13.2-33.93 13.2-41.22a13.2 13.2 0 0 0 -26.39 0z" fill="#fff"/><path d="m485.11 298.86c-1.64 3.62-3.47 6-5.4 6-7.28 0-13.19-33.93-13.19-41.22a13.17 13.17 0 0 1 7.73-12 13.11 13.11 0 0 0 -1.52 6.15c0 7 5.47 38.72 12.38 41.07z" fill="#b5b5b5"/><path d="m439.44 114.33s40.12-7.82 45 142a4.9 4.9 0 0 1 -5.06 5.06 4.88 4.88 0 0 1 -4.7-5.18c1.12-17.27 1.62-76.81-35.24-141.88z" fill="#535045"/><path d="m437.3 270.22c-3.86 22.89-3.86 78.61-3.86 78.61 0 3.67-1.7 7.91-3.65 11.57a63.58 63.58 0 0 1 -5.67 8.77c-9.15 4.1-21 2.47-27.3 1.12a3.63 3.63 0 0 1 -2.12-5.77 49.32 49.32 0 0 1 8-7.42 16.8 16.8 0 0 0 7-6.88c5.74-9.79 6.65-26.39 6.28-39.5a87.05 87.05 0 0 0 -6.89-31.56c-5.91-13.91-15-36.1-19.23-46.44 8.27-7.84 23.47-19.1 35.91-10.69a253.08 253.08 0 0 0 10.06 33.45 28.51 28.51 0 0 1 1.47 14.74z" fill="#ccc"/><path d="m420.3 350.22a16.86 16.86 0 0 1 -7 6.88 48.88 48.88 0 0 0 -8 7.42 3.63 3.63 0 0 0 2.11 5.77 70.85 70.85 0 0 0 7.76 1.21 59 59 0 0 1 -18.36-1.21 3.63 3.63 0 0 1 -2.12-5.77 49.32 49.32 0 0 1 8-7.42 16.8 16.8 0 0 0 7-6.88c5.74-9.79 6.65-26.39 6.28-39.5a87.05 87.05 0 0 0 -6.89-31.56c-5.91-13.91-15-36.1-19.23-46.44 7.27-6.89 19.88-16.42 31.27-12.92-8 2.08-15.61 8.14-20.66 12.92 4.23 10.34 13.32 32.53 19.22 46.44a86.86 86.86 0 0 1 6.9 31.56c.42 13.11-.58 29.71-6.28 39.5z" fill="#b5b5b5"/><path d="m376.93 276.59h11.73a0 0 0 0 1 0 0v25.87a5.86 5.86 0 0 1 -5.86 5.86 5.86 5.86 0 0 1 -5.86-5.86v-25.87a0 0 0 0 1 -.01 0z" fill="#c7877f" transform="matrix(.924 .382 -.382 .924 140.6 -123.96)"/><path d="m399.08 281.17h11.73a0 0 0 0 1 0 0v25.83a5.86 5.86 0 0 1 -5.86 5.86 5.86 5.86 0 0 1 -5.86-5.86v-25.83a0 0 0 0 1 0 0z" fill="#c7877f" transform="matrix(.996 -.093 .093 .996 -25.82 38.87)"/><path d="m430.37 290.38 2.63 13.39c.51 3.15.4 6.18-2.32 7.94a5.86 5.86 0 0 1 -8.11-1.74l-3.92-15.43a59.69 59.69 0 0 1 -18.27 1.29c-2.55-.22-10-1.57-11.4-1.82h-.12-.1c-1.38-.33-2.77-.7-4.15-1.12a73.72 73.72 0 0 1 -14.36-6.09l-9 12.91a5.86 5.86 0 0 1 -9.64-6.68l8.9-12.84c-11.66-9.71-17.52-22.32-14.08-33.61 5.34-17.53 31.07-25.22 57.47-17.18s43.48 28.78 38.13 46.31c-1.84 6.1-6.21 11.02-11.66 14.67z" fill="#e79d90"/><path d="m200.82 376.17c-1.68 3.9-4.13 11.71-5.46 16.07-.58 1.89-.94 3.13-.94 3.13-7.4 13.57-30 11-40 9.07a3.56 3.56 0 0 1 -2.06-5.75 120.5 120.5 0 0 1 9.25-9.51 24.75 24.75 0 0 0 5.66-4.6c10.44-11.13 15.32-32.62 17.51-46.95a63.19 63.19 0 0 0 -1.5-25.89l-6-22.24-10.07-37.35 37.6-4c3.41 7.4 5 18.47 5.39 31.07 1.34 40.57-9.38 96.95-9.38 96.95z" fill="#ccc"/><path d="m200.69 311.74a62.84 62.84 0 0 1 1.5 25.89c-2.18 14.33-7.07 35.82-17.51 46.95a24.53 24.53 0 0 1 -5.66 4.6 120.5 120.5 0 0 0 -9.25 9.51 3.56 3.56 0 0 0 2.06 5.75c1.69.32 3.73.66 6 .94-8.52 1.37-17.89.11-23.4-.94a3.56 3.56 0 0 1 -2.06-5.75 120.5 120.5 0 0 1 9.25-9.51 24.75 24.75 0 0 0 5.66-4.6c10.44-11.13 15.32-32.62 17.51-46.95a63.19 63.19 0 0 0 -1.5-25.89l-6-22.24-10.07-37.35 37.6-4c.26.57.52 1.16.76 1.77l-21 2.23 10.07 37.35z" fill="#b5b5b5"/><path d="m469.52 289.94c-3.86 22.89-3.86 78.61-3.86 78.61a17.2 17.2 0 0 1 -.79 4.82 30 30 0 0 1 -1.61 4.24 61.74 61.74 0 0 1 -6.91 11.28c-9.16 4.1-21 2.48-27.32 1.12a3.64 3.64 0 0 1 -2.87-3.82 3.42 3.42 0 0 1 .76-1.93 38.31 38.31 0 0 1 4.88-4.9c1.77-1.53 3.16-2.53 3.16-2.53a15.62 15.62 0 0 0 5.67-4.94 22.93 22.93 0 0 0 2.11-3.49c5-9.93 5.81-25.53 5.45-38a87 87 0 0 0 -6.89-31.53c-1.71-4-3.68-8.76-5.73-13.68-7.42-17.86-15.79-38.43-15.79-38.43-7.83-10-17.62-9.28-26.25-5.11l-.36.18c-11.37 5.63-20.64 17-20.64 17-29.65 19.19-73.22 22.58-106.38 21.74a17 17 0 0 0 -17.44 17.21l.33 35.13c-.69 23.73 11.73 46 11.73 46-.76 3.78-.68 9.46-.46 13.79.18 3.55.46 6.21.46 6.21-4.08 17.81-21.64 17.23-30.59 15.7a3.14 3.14 0 0 1 -2.17-4.69c3.05-5.15 7.23-11 7.23-11a18.21 18.21 0 0 0 2-6.2c.95-5.52.9-12.94.46-20a81.35 81.35 0 0 0 -8.7-31.25c-5.23-10.48-7.56-23.28-7.56-23.28a96.94 96.94 0 0 0 -5.54-32.67 10.55 10.55 0 0 0 -5.7-6.3 10.24 10.24 0 0 0 -2.23-.74 10 10 0 0 0 -6.47.83 5.38 5.38 0 0 0 -1.45.93c-8.48 6.94-16.09 9.47-22.77 9.26-21.86-.69-33.8-30.64-33.8-30.64-7.2-14.65-33.3-45.19-48.49-62.39a14.3 14.3 0 0 0 -14.32-4.36 13.41 13.41 0 0 0 -2.47.86 65.13 65.13 0 0 1 -9.29 3.39c2.41-2.41 8.34-8.9 8.34-8.9 1.6-22.46-21.71-22.46-32.7-21.22a55.91 55.91 0 0 0 -5.58.87c2.43-5.87-1-33.81-1-33.81-4.5-13.81 5.03-27.64 13.03-36.21a82.82 82.82 0 0 1 9.33-8.63c6.76-6.12 17-.9 20.33 1.06.28.16.5.31.68.42l.38.25c3.6 4.62 7.15 11.7 10 18.39a106.55 106.55 0 0 0 19.37 2h1.18c11.58.29 24.45-.27 34.29-.88a68.15 68.15 0 0 1 25.66 3.47c14.06 4.67 38.55 7 67.2 7.93 47 1.49 105.27-.9 146.72-3.25 31.43-1.77 53.22-3.52 53.22-3.52 31.74 3.8 14.84 82.09 14.84 82.09-3.13 29.4 8.07 63.69 13.77 78.78a28.49 28.49 0 0 1 1.55 14.74z" fill="#fff"/><path d="m435.54 285.74a29.68 29.68 0 0 1 -5.19 4c-3.91-9.49-7.51-18.29-9.41-22.94a18.52 18.52 0 0 0 -8.52-9.59c-6.21-3.19-13-1.95-19.14 1-6.81 3.29-12.91 8.69-16.75 12.56a53.31 53.31 0 0 1 -14.1 10.2l-.68.33a50.12 50.12 0 0 1 -11.15-11.85 115.9 115.9 0 0 0 13.4-5.79 48 48 0 0 0 12.26-9.1c3.82-3.89 10.06-9.5 17.06-12.88 6.17-3 12.93-4.22 19.14-1a18.52 18.52 0 0 1 8.52 9.59c2.69 6.6 8.81 21.56 14.38 35 .04.12.11.3.18.47z" fill="#c7877f"/><path d="m51 97.09a77.49 77.49 0 0 0 -5.54 6.64l-1.32-.11a10.07 10.07 0 0 1 -6.17-3c-2.89-2.83-7.58-4.9-13-5.36-9.38-.79-17.4 3.51-17.91 9.6s6.67 11.67 16 12.46c5.43.46 10.4-.79 13.72-3.1a11 11 0 0 1 3.2-1.54c-3 6.39-4.41 13.49-2.11 20.58 0 0 3.46 27.94 1 33.81a55.91 55.91 0 0 1 5.58-.87c7.44-7 12.59-21.92 12.59-39.21.1-11.56-2.22-22.11-6.04-29.9z" fill="#535045"/><ellipse cx="45.62" cy="129.53" fill="#2b1812" rx="4.57" ry="6.47"/><path d="m260.77 398.9c-4.08 17.81-21.64 17.23-30.59 15.7a3.14 3.14 0 0 1 -2.17-4.69c3.05-5.15 7.23-11 7.23-11a18.21 18.21 0 0 0 2-6.2 38 38 0 0 1 10.37-1.77 37.34 37.34 0 0 1 12.7 1.76c.18 3.54.46 6.2.46 6.2z" fill="#535045"/><path d="m254.56 410c-7.12 6.31-18 5.69-24.38 4.6a3.14 3.14 0 0 1 -2.17-4.69c3.05-5.15 7.23-11 7.23-11a18.21 18.21 0 0 0 2-6.2 37.92 37.92 0 0 1 9.17-1.72 13 13 0 0 1 -1.34 3.26s-4.18 5.86-7.23 11a3.14 3.14 0 0 0 2.17 4.69 40.54 40.54 0 0 0 14.55.06z" fill="#403d36"/><path d="m195.36 392.24c-.58 1.89-.94 3.13-.94 3.13-7.4 13.57-30 11-40 9.07a3.56 3.56 0 0 1 -2.06-5.75 120.5 120.5 0 0 1 9.25-9.51 24.75 24.75 0 0 0 5.66-4.6 40.43 40.43 0 0 1 4.45-.39c9.57-.3 18.17 2.87 23.64 8.05z" fill="#535045"/><path d="m188.5 401.62c-9.88 6.32-26.06 4.35-34.07 2.82a3.56 3.56 0 0 1 -2.06-5.75 120.5 120.5 0 0 1 9.25-9.51 24.75 24.75 0 0 0 5.66-4.6 40.43 40.43 0 0 1 4.45-.39 36.84 36.84 0 0 1 5 .16c-.35.24-.71.47-1.07.67a120.5 120.5 0 0 0 -9.25 9.51 3.56 3.56 0 0 0 2.06 5.75 76.75 76.75 0 0 0 20.03 1.34z" fill="#403d36"/><path d="m464.87 373.37a30 30 0 0 1 -1.61 4.24 61.74 61.74 0 0 1 -6.91 11.28c-9.16 4.1-21 2.48-27.32 1.12a3.64 3.64 0 0 1 -2.87-3.82 3.42 3.42 0 0 1 .76-1.93 38.31 38.31 0 0 1 4.88-4.9c1.77-1.53 3.16-2.53 3.16-2.53a15.62 15.62 0 0 0 5.67-4.94 22.93 22.93 0 0 0 2.11-3.49 47.72 47.72 0 0 1 22.13 4.97z" fill="#535045"/><path d="m456.94 388.12-.59.77c-9.16 4.1-21 2.48-27.32 1.12a3.64 3.64 0 0 1 -2.87-3.82 3.42 3.42 0 0 1 .76-1.93 38.31 38.31 0 0 1 4.88-4.9c1.77-1.53 3.16-2.53 3.16-2.53a15.62 15.62 0 0 0 5.67-4.94 22.93 22.93 0 0 0 2.11-3.49 52.9 52.9 0 0 1 7.4.46 15.31 15.31 0 0 1 -5.61 4.86s-1.39 1-3.16 2.54a37.57 37.57 0 0 0 -4.88 4.89 3.52 3.52 0 0 0 -.76 1.94 3.65 3.65 0 0 0 2.87 3.82 59.15 59.15 0 0 0 18.34 1.21z" fill="#403d36"/><path d="m429.79 360.4a63.58 63.58 0 0 1 -5.67 8.77c-9.15 4.1-21 2.47-27.3 1.12a3.63 3.63 0 0 1 -2.12-5.77 49.32 49.32 0 0 1 8-7.42 16.8 16.8 0 0 0 7-6.88c8.54.99 15.84 4.78 20.09 10.18z" fill="#535045"/><path d="m424.88 368.17c-.47.64-.76 1-.76 1-9.15 4.1-21 2.47-27.3 1.12a3.63 3.63 0 0 1 -2.12-5.77 49.32 49.32 0 0 1 8-7.42 16.8 16.8 0 0 0 7-6.88 35.72 35.72 0 0 1 6.35 1.31 13.52 13.52 0 0 1 -3.22 2.2 48.81 48.81 0 0 0 -8 7.42 3.62 3.62 0 0 0 2.12 5.76 59.38 59.38 0 0 0 17.93 1.26z" fill="#403d36"/><g fill="#535045"><ellipse cx="430.59" cy="143.59" rx="9.64" ry="12.88" transform="matrix(.736 -.677 .677 .736 16.51 329.5)"/><ellipse cx="188.44" cy="140.07" rx="9.64" ry="12.88" transform="matrix(.736 -.677 .677 .736 -45.07 164.6)"/><ellipse cx="298.37" cy="250.44" rx="12.88" ry="9.64" transform="matrix(.831 -.556 .556 .831 -88.87 208.11)"/><path d="m432.13 198-.08-.08a18.32 18.32 0 0 0 2.83-4.89c2.86-7.32.74-15-4.74-17.13s-12.24 2-15.1 9.37a16.86 16.86 0 0 1 -5.66 7.53 10.39 10.39 0 0 0 -.9.74c-5.87 5.4-4.78 16.12 2.43 24s17.81 9.8 23.67 4.41 4.76-16.15-2.45-23.95z"/><path d="m229.91 193c-9.58-10.4-23.1-14-32.25-9.14a3.19 3.19 0 0 1 -3.86-.69 101.59 101.59 0 0 0 -31-23.11c2.7-7.86.73-15.85-5-18.82a9.65 9.65 0 0 0 -1.56-.64 15.83 15.83 0 0 1 -8.29-6.69 39.26 39.26 0 0 0 -3.93-5.05c-7.28-7.91-16.86-11.87-25.05-11.18a6.83 6.83 0 0 1 -7.15-5.07c-.19-.69-.38-1.36-.59-2a106.55 106.55 0 0 1 -19.37-2c-2.9-6.69-6.45-13.77-10-18.39l-.38-.25c-9.48 6.81-16.24 24.62-16.24 45.5 0 17.53 4.76 32.82 11.76 41.36a17.46 17.46 0 0 1 3.8 14.55c0 .24-.1.48-.14.73a14.3 14.3 0 0 1 14.34 4.36c15.19 17.2 41.29 47.74 48.49 62.39 0 0 20.35 51.05 56.57 21.38a5.38 5.38 0 0 1 1.45-.93 10 10 0 0 1 6.47-.83c8-9.49 11.76-21.89 11.61-35.32a10.47 10.47 0 0 1 7.29-10.22 16.9 16.9 0 0 0 6.7-3.77c8.86-8.17 7.22-24.36-3.67-36.17z"/></g><path d="m196.49 282.94c-34 23.63-53-24.08-53-24.08-7.2-14.65-33.3-45.19-48.49-62.39a14.3 14.3 0 0 0 -14.32-4.36 17.45 17.45 0 0 0 -3.68-15.28c-7-8.54-11.76-23.83-11.76-41.36 0-20.88 6.71-38.69 16.13-45.53l.38.25c3.6 4.62 7.15 11.7 10 18.39h.11a12.71 12.71 0 0 1 9.9 14.06 93 93 0 0 0 -.87 12.81c0 17.5 4.71 32.82 11.77 41.36a17.42 17.42 0 0 1 3.65 15.26 14.3 14.3 0 0 1 14.32 4.36c15.19 17.2 41.29 47.74 48.49 62.39.07.04 6.08 15.11 17.37 24.12z" fill="#49463d"/><path d="m385.62 171.19a14.08 14.08 0 0 0 -1.28 13.54c4.2 9.67 3.33 19.88-3.13 25.82-8.86 8.15-24.86 5.16-35.76-6.67a8.46 8.46 0 0 0 -8.07-2.66 104.06 104.06 0 0 1 -24.18 2.4h-.78a8.49 8.49 0 0 0 -8.37 6.17 17.25 17.25 0 0 1 -4.88 8c-8.86 8.16-24.87 5.16-35.76-6.66-6.06-6.59-9.26-14.53-9.38-21.68a15.83 15.83 0 0 0 -4.49-10.78 59.64 59.64 0 0 1 -8.5-10.94 9 9 0 0 0 -8.91-4.36 10.68 10.68 0 0 1 -6.28-1c-6.55-3.37-8.22-13.18-3.73-21.93a21.58 21.58 0 0 1 7.83-8.63 23.11 23.11 0 0 0 9-9.44c.21-.41.42-.83.64-1.24 47 1.49 105.27-.9 146.72-3.25a46.8 46.8 0 0 1 -.6 53.34z" fill="#535045"/><ellipse cx="77.49" cy="129.53" fill="#2b1812" rx="4.57" ry="6.47"/><path d="m81.58 177.22c0 6.06-4.91 13.78-11.85 18.59a23.65 23.65 0 0 1 -13.38 4.59c-5.84 0-11.17-3-15.3-7.23-5.12-5.2-8.37-12.23-8.37-17.51 0-7.3 6.23-9.14 15-9.61 2.68-.14 5.59-.15 8.64-.15a85.81 85.81 0 0 1 10.5.54c8.46 1.06 14.76 3.91 14.76 10.78z" fill="#e79d90"/><path d="m69.73 195.81a23.65 23.65 0 0 1 -13.38 4.59c-5.84 0-11.17-3-15.3-7.23 7.84-7 7.24-21.51 6.66-27.12 2.68-.14 5.59-.15 8.64-.15a85.81 85.81 0 0 1 10.5.54c-2.66 9.1.55 22.01 2.88 29.37z" fill="#c68880"/><ellipse cx="43.07" cy="178.68" fill="#381e14" rx="3.32" ry="6.98" transform="matrix(.729 -.684 .684 .729 -110.63 77.9)"/><path d="m47.85 183.78c-.64.6-1.73.62-3 .16a2.39 2.39 0 0 0 .22-.16c1.33-1.27.28-4.56-2.36-7.37a11.65 11.65 0 0 0 -4.23-3c1.44-1 4.48.31 7 3s3.71 6.1 2.37 7.37z" fill="#2b1812"/><ellipse cx="67.56" cy="178.68" fill="#381e14" rx="6.98" ry="3.32" transform="matrix(.684 -.729 .729 .684 -108.95 105.64)"/><path d="m62.79 183.78c.64.6 1.73.62 3 .16a1.53 1.53 0 0 1 -.22-.16c-1.33-1.27-.28-4.56 2.36-7.37a11.65 11.65 0 0 1 4.23-3c-1.45-1-4.48.31-7 3-2.66 2.81-3.72 6.1-2.37 7.37z" fill="#2b1812"/><path d="m94.47 119.44c-.47 5.28-.9 15.59 1.81 23.68a37.69 37.69 0 0 1 1.92 8.49c.77 8.27.24 23.23-11.55 32.52a.62.62 0 0 1 -.92-.77c2.88-5.73 9.74-21.12 8-34.85a25.18 25.18 0 0 0 -.5-2.59c-.93-3.9-3.61-17.2.08-26.74a.61.61 0 0 1 1.16.26z" fill="#403d36"/><path d="m393.28 241.68-.11.18c-11.37 5.63-20.64 17-20.64 17-29.65 19.19-73.22 22.58-106.38 21.74 0 0 77.18-11.7 127.13-38.92z" fill="#ccc"/><ellipse cx="395.24" cy="282.53" fill="#f0d3d0" rx="9.44" ry="4.86"/><ellipse cx="410.5" cy="282.53" fill="#f0d3d0" rx="4.3" ry="2.21"/><path d="m109.19 112.24c9-2.89 14.7-9.95 12.82-15.76s-10.65-8.2-19.61-5.31c-5.19 1.67-9.29 4.74-11.47 8.16a10 10 0 0 1 -5.34 4.27 4.29 4.29 0 0 0 -2.76 5.4l.07.22a4.28 4.28 0 0 0 5.39 2.78 10 10 0 0 1 6.83.35c3.76 1.47 8.88 1.56 14.07-.11z" fill="#403d36"/><path d="m105.6 106.64c4.2-1.35 6.89-4.66 6-7.38s-5-3.84-9.19-2.49a10 10 0 0 0 -5.37 3.82 4.62 4.62 0 0 1 -2.5 2 2 2 0 0 0 -1.29 2.53v.1a2 2 0 0 0 2.52 1.3 4.7 4.7 0 0 1 3.2.16 10 10 0 0 0 6.63-.04z" fill="#35332d"/><path d="m25 101.2c-4.36-.63-8.23 1.14-8.65 4s2.79 5.65 7.15 6.28a10 10 0 0 0 6.5-1 4.69 4.69 0 0 1 3.13-.69 2 2 0 0 0 2.28-1.7v-.11a2 2 0 0 0 -1.69-2.27 4.72 4.72 0 0 1 -2.8-1.56 10 10 0 0 0 -5.92-2.95z" fill="#403d36"/></g></svg>