<svg id="Capa_1" enable-background="new 0 0 512 512" height="230" viewBox="0 0 512 512" width="230" xmlns="http://www.w3.org/2000/svg"><g><g><g><g><g><g><g><circle cx="256" cy="256" fill="#00d65b" r="256"/></g></g></g></g></g></g><path d="m510.971 279.105-31.82-31.82-5.658 1.598-117.287-117.287-21.362 21.943-78.819-78.819-139.664 76.112-26.644 161.874 197.42 197.42c119.158-14.449 213.076-110.762 223.834-231.021z" fill="#06bf51"/><path d="m74.747 255.31-19.998-19.998-21.213 21.213 56.181 56.181 56.18-56.181-21.213-21.213-19.936 19.936c.406-83.071 68.113-150.528 151.278-150.528v-30c-99.728 0-180.905 80.947-181.279 180.59z" fill="#fff"/><path d="m479.151 247.286-56.846-56.847-56.846 56.847 21.213 21.213 20.633-20.633v8.134c0 83.416-67.864 151.28-151.28 151.28v30c99.958 0 181.28-81.322 181.28-181.28v-8.134l20.633 20.633z" fill="#e9edf5"/><g><path d="m356.206 131.596h-116.685l-50.12 137.168h39.276l-35.796 141.423 150.677-167.609h-47.116z" fill="#ffce00"/></g><g><path d="m296.442 242.578 59.764-110.982h-100.085v208.246l87.437-97.264z" fill="#fdba12"/></g></g></svg>