<svg height="230" viewBox="0 0 512 512" width="230" xmlns="http://www.w3.org/2000/svg"><g id="Flat"><path d="m333.25 208a109.25069 109.25069 0 0 0 -71.37012 26.54 56.10923 56.10923 0 0 0 9.72022 13.06006l42.04 42.04a68.24118 68.24118 0 0 1 41.77978-22.7002l20.58012-2.93986a109.26908 109.26908 0 0 0 -32 77.25v10.75h-64a77.25758 77.25758 0 0 0 -22.62988-54.62988l-17.37012-17.37012h-95.1499a60 60 0 0 1 -42.42017-102.42993l57.57007-57.57007-38.35986 76.72a29.90469 29.90469 0 0 0 26.75 43.28h56.91992a71.18187 71.18187 0 0 1 -5.68994-16 71.90728 71.90728 0 0 1 19.28979-66.91016 71.99037 71.99037 0 0 0 21.09009-50.90991v-18.17993h48v40.80005a56.07348 56.07348 0 0 1 -16.3999 39.59985 56.02623 56.02623 0 0 0 -9.35987 12.3901c-.01025.01-.01025.03-.0205.0498a81.86729 81.86729 0 0 1 27.72021-4.8398h102.06006l-13.08984 13.08984a64.56321 64.56321 0 0 1 -45.66016 18.91016z" fill="#bc8d5d"/><path d="m278.00977 160.72a55.639 55.639 0 0 1 -6.40967 7.67993 56.02623 56.02623 0 0 0 -9.35987 12.39007 81.49255 81.49255 0 0 0 -30.24023 19.21l-11.31006-11.31006a97.17953 97.17953 0 0 1 57.31983-27.96994z" fill="#a1764a"/><path d="m313.64014 289.64014a67.95952 67.95952 0 0 0 -9.64014 14.35986l-14.31006-7.16016a84.58172 84.58172 0 0 1 12.60986-18.53979z" fill="#a1764a"/><path d="m232 224v16h-26.68994a71.18187 71.18187 0 0 1 -5.68994-16z" fill="#a1764a"/><path d="m368 80a24.00619 24.00619 0 0 1 -24 24h-32a23.88522 23.88522 0 0 1 -10.41016-2.37012 40.0221 40.0221 0 0 1 -13.58984 2.37012h-48a40 40 0 0 1 0-80h48a40.01649 40.01649 0 0 1 39.2002 32h16.7998a24.00243 24.00243 0 0 1 24 24z" fill="#7ab555"/><path d="m344.21 63.99a48.90391 48.90391 0 0 1 -.96 9.59009l-15.68018-3.18019a32.67976 32.67976 0 0 0 .64018-6.4099 31.88084 31.88084 0 0 0 -1.0098-7.99h16.3398a47.87062 47.87062 0 0 1 .67 7.99z" fill="#699b49"/><rect fill="#699b49" height="48" rx="24" width="128" x="272" y="96"/><path d="m488 180a19.99459 19.99459 0 0 1 -20 20h-40a19.80165 19.80165 0 0 1 -5.14014-.68994 23.99677 23.99677 0 0 1 -22.85986 16.68994h-32a23.99281 23.99281 0 0 1 -17.3999-40.52 28.00308 28.00308 0 0 1 5.3999-55.48h72a28.00272 28.00272 0 0 1 25.2998 40h14.7002a20.00682 20.00682 0 0 1 20 20z" fill="#7ab555"/><path d="m456 148a27.88045 27.88045 0 0 1 -2.7002 12h-25.1997a11.897 11.897 0 0 0 -8.48 3.52 11.685 11.685 0 0 0 -2.04 2.71 7.99865 7.99865 0 0 1 -10.53028 3.35986 15.77466 15.77466 0 0 0 -6.94972-1.58986h-20v-16h20a32.1341 32.1341 0 0 1 7.54.89014q.32958-.34535.65966-.69019a27.81342 27.81342 0 0 1 19.8003-8.2h27.60994a27.70332 27.70332 0 0 1 .29 4.00005z" fill="#699b49"/><rect fill="#699b49" height="56" rx="28" width="152" x="88" y="64"/><g fill="#7ab555"><path d="m184 120h-24a31.99893 31.99893 0 0 0 -8.96045 1.28076 24.00537 24.00537 0 0 0 -23.03955-17.28076h-64a23.99994 23.99994 0 0 0 -24 24 23.99994 23.99994 0 0 0 24 24h64a32 32 0 0 0 32 32h24a32 32 0 0 0 32-32 32 32 0 0 0 -32-32z"/><path d="m167.24 240a23.99978 23.99978 0 0 1 -24 24h-8.61011a24.04024 24.04024 0 0 1 1.37011 8 23.59674 23.59674 0 0 1 -1.37988 8 23.99852 23.99852 0 0 1 -22.62012 16h-32a24.00025 24.00025 0 0 1 -6.99-46.96 23.99511 23.99511 0 0 1 22.23-33.04h48a24.002 24.002 0 0 1 24 24z"/><path d="m440 296a15.9958 15.9958 0 0 1 -16 16h-24a15.9958 15.9958 0 0 1 -16-16h-16a24 24 0 0 1 0-48h32a23.98 23.98 0 0 1 22.62012 16 23.59674 23.59674 0 0 1 1.37988 8 24.04633 24.04633 0 0 1 -1.37012 8h1.37012a15.97876 15.97876 0 0 1 16 16z"/><path d="m240 392a70.19874 70.19874 0 0 1 66.59637-48h10.80722a70.19874 70.19874 0 0 1 66.59641 48l-17.35 16h-110.525z"/></g><path d="m136 272a23.59674 23.59674 0 0 1 -1.37988 8h-30.62012v-16h30.62988a24.04024 24.04024 0 0 1 1.37012 8z" fill="#699b49"/><path d="m424 272a24.04633 24.04633 0 0 1 -1.37012 8h-22.62988v-16h22.62012a23.59674 23.59674 0 0 1 1.37988 8z" fill="#699b49"/><path d="m104.00006 408h367.99988a0 0 0 0 1 0 0v16a64 64 0 0 1 -64 64h-239.99988a64 64 0 0 1 -64-64v-16a0 0 0 0 1 0 0z" fill="#808080"/><rect fill="#4d4d4d" height="32" rx="16" width="400" x="88" y="392"/></g></svg>