<svg height="250" viewBox="0 0 58 58" width="250" xmlns="http://www.w3.org/2000/svg"><g id="Page-1" fill="none" fill-rule="evenodd"><g id="010---Recycle-Box" fill-rule="nonzero"><path id="Shape" d="m48.52 4.272c3.604-6.901 9.48-4.272 9.48-.272v7c0 1.1045695-.8954305 2-2 2h-6z" fill="#f0c419"/><path id="Shape" d="m50 18v-14c0-2.209139 1.790861-4 4-4h-16c-2.209139 0-4 1.790861-4 4v14l8 2z" fill="#f3d55b"/><g fill="#35495e"><path id="Shape" d="m46 7h-8c-.5522847 0-1-.44771525-1-1s.4477153-1 1-1h8c.5522847 0 1 .44771525 1 1s-.4477153 1-1 1z"/><path id="Shape" d="m46 11h-7c-.5522847 0-1-.4477153-1-1 0-.55228475.4477153-1 1-1h7c.5522847 0 1 .44771525 1 1 0 .5522847-.4477153 1-1 1z"/><path id="Shape" d="m46 15h-7c-.5522847 0-1-.4477153-1-1s.4477153-1 1-1h7c.5522847 0 1 .4477153 1 1s-.4477153 1-1 1z"/></g><path id="Shape" d="m19.72 10.54c.0522735-.0487949.1092136-.0923373.17-.13l4.22-2.82c.5575714-.36788624.8921877-.99200199.89-1.66v-1.93h4v1.93c-.0021877.66799801.3324286 1.29211376.89 1.66l4.22 2.82c.5575714.3678862.8921877.992002.89 1.66l.0000107 5.93h-16.0000107z" fill="#2fa8cc"/><path id="Rectangle-path" d="m20 14h15v4h-15z" fill="#bdc3c7"/><path id="Shape" d="m20 18v-6c0-1.2590292-.5927766-2.44458247-1.6-3.2l-2.4-1.8-4-1-4 1-2.4 1.8c-1.00722337.75541753-1.6 1.9409708-1.6 3.2v6l8 2z" fill="#67b9cc"/><rect id="Rectangle-path" fill="#3f5c6c" height="4" rx="2" width="12" x="6" y="3"/><path id="Rectangle-path" d="m4 12h16v6h-16z" fill="#ecf0f1"/><rect id="Rectangle-path" fill="#95a5a5" height="6" rx="1" width="58" y="18"/><path id="Shape" d="m56 24-6.507 31.6c-.2850108 1.3962627-1.5129455 2.3993408-2.938 2.4h-35.11c-1.4250545-.0006592-2.65298922-1.0037373-2.938-2.4l-6.507-31.6z" fill="#7f8c8d"/><path id="Shape" d="m27 50-11 .007 5.824-9.4.409 1.752c.1054413.4523742.5085002.7725843.973.773.0770744.000082.1539058-.0086412.229-.026.53707-.1257913.8708555-.6627117.746-1.2l-.964-4.132c-.1257913-.53707-.6627117-.8708555-1.2-.746l-4.132.964c-.5259463.1358912-.8472196.6668002-.7236041 1.1957662.1236156.5289661.6469047.8625068 1.1786041.7512338l1.809-.422-5.849 9.438c-.3817877.6143193-.4007803 1.3872666-.0496248 2.0195956.3511554.632329 1.0173339 1.0247756 1.7406248 1.0254044h11.009c.5522847 0 1-.4477153 1-1s-.4477153-1-1-1z" fill="#81ccb8"/><path id="Shape" d="m43.7 48.954-2.153-3.478c-.2952391-.4587669-.9036989-.5962362-1.3674921-.3089573-.4637931.2872789-.6117411.8932761-.3325079 1.3619573l2.167 3.471h-8.6l1.293-1.293c.3389508-.397481.314856-.9888806-.0553061-1.3574708-.3701621-.3685903-.9616589-.3901683-1.3576939-.0495292l-3 3c-.3903819.3904999-.3903819 1.0235001 0 1.414l3 3c.3923789.3789722 1.0160848.3735524 1.4018186-.0121814s.3911536-1.0094397.0121814-1.4018186l-1.293-1.3h8.6c.7219766-.0038686 1.3855257-.3975132 1.7350083-1.0292782.3494826-.6317651.3303571-1.4030547-.0500083-2.0167218z" fill="#81ccb8"/><path id="Shape" d="m34.389 40.2c-.5379253-.1256448-1.0758552.2085747-1.2015.7465-.1256447.5379253.2085747 1.0758552.7465 1.2015l4.131.964c.074811.0170344.1512746.025754.228.026.4648737.0000489.8684737-.3202619.974-.773l.963-4.132c.1082962-.5305464-.2253693-1.0509077-.752709-1.1738724s-1.0567524.1961448-1.194291.7198724l-.412 1.768-7.18-11.6c-.3602979-.5880384-1.0003596-.9465175-1.69-.9465175s-1.3297021.3584791-1.69.9465175l-3.42 5.53c-.2037883.3040561-.2251712.6951567-.0557463 1.0196177.1694248.324461.5025818.5304304.8685557.5369718.365974.0065414.7062788-.1873904.8871906-.5055895l3.4-5.528 7.19 11.616z" fill="#81ccb8"/><rect id="Rectangle-path" fill="#35495e" height="4" rx="1" width="6" x="24"/></g></g></svg>