<svg id="flat" height="250" viewBox="0 0 512 512" width="250" xmlns="http://www.w3.org/2000/svg"><path d="m320 248 57.808 115.615h27.782l34.41-51.615-49.416-98.833z" fill="#a2ba18"/><path d="m113.363 235.615 70.637-123.615h112v64h-72l-44.093 88.187z" fill="#a2ba18"/><path d="m248 112h80l56 88 32-16-32 96-88-32 32-16z" fill="#b9cd2a"/><path d="m272 344h-194.667l42.667 64h152" fill="#a2ba18"/><path d="m224 448h64v40h-64z" fill="#bbedf2"/><path d="m328 360a27.31368 27.31368 0 0 0 8-19.31369v-18.79778a28.94425 28.94425 0 0 0 -16-25.88853v-64a28.94425 28.94425 0 0 0 16-25.88852v-31.4639a82.38849 82.38849 0 0 0 -40-70.64758h-80a82.38849 82.38849 0 0 0 -40 70.64755v31.4639a28.94425 28.94425 0 0 0 16 25.88855v64a28.94425 28.94425 0 0 0 -16 25.88852v18.79778a27.31368 27.31368 0 0 0 8 19.3137z" fill="#cdf4f7"/><path d="m320 232v64l-16-8a35.75218 35.75218 0 0 0 -32 0 35.75269 35.75269 0 0 1 -32 0 35.75218 35.75218 0 0 0 -32 0l-16 8v-64l16-8a35.75218 35.75218 0 0 1 32 0 35.75269 35.75269 0 0 0 32 0 35.75218 35.75218 0 0 1 32 0z" fill="#bbedf2"/><path d="m184 360h144v32h-144z" fill="#bbedf2"/><path d="m328 392 8 8v64a24 24 0 0 1 -24 24h-24l-32-32-32 32h-24a24 24 0 0 1 -24-24v-64l8-8z" fill="#cdf4f7"/><path d="m208 72h96v32h-96z" fill="#ffcc4d"/><path d="m224 24h64v48h-64z" fill="#ffc431"/><path d="m320 255.05v17.89l-19.58008-9.78a27.89475 27.89475 0 0 0 -24.83984 0 43.993 43.993 0 0 1 -39.16016 0 27.89475 27.89475 0 0 0 -24.83984 0l-19.58008 9.78v-17.89l12.41992-6.21a43.993 43.993 0 0 1 39.16016 0 27.89475 27.89475 0 0 0 24.83984 0 43.993 43.993 0 0 1 39.16016 0z" fill="#9ce6ed"/><g fill="#b9cd2a"><path d="m418.667 344-42.667 64h-72v40l-64-72 64-72v40z"/><path d="m113.143 397.714 54.857-109.714 32 16-32-96-88 32 32 16-40 80z"/></g></svg>