<?xml version="1.0"?>
<svg xmlns="http://www.w3.org/2000/svg" viewBox="0 0 64 64" width="250" height="250"><path d="m29 4 2 9h6l-5-9z" fill="#55d5f2"/><path d="m56.37946 18.40546-.37946-.3797-2.71851-2.7201a11.27621 11.27621 0 0 0 -7.97583-3.30566h-32.30566l6 6.0036.24677.24689a12.79 12.79 0 0 0 9.04669 3.74951h26.598a2.10582 2.10582 0 0 0 1.488-3.59454z" fill="#ed4720"/><path d="m53.28149 15.30566a11.27621 11.27621 0 0 0 -7.97583-3.30566h-32.30566l6 6.0036 37 .02216z" fill="#beedfc"/><path d="m13 31h4v5h-4z" fill="#ed4720"/><path d="m22 35h-14l-2 11h18z" fill="#c8f0fc"/><path d="m15 35.5c0-.16882.016-.3335.02521-.5h-7.02521l-2 11h18l-.27527-1.51392a8.99364 8.99364 0 0 1 -8.72473-8.98608z" fill="#78e6f9"/><path d="m11 38h8v2h-8z" fill="#a7adaf"/><path d="m18 2h-5v10h8z" fill="#78deef"/><path d="m32 40h20v18h-20z" fill="#4fb8c9"/><path d="m10.67438 61c2.16711 0 2.16711-2 4.33423-2 2.16522 0 2.16522 2 4.33044 2 1.74585 0 2.09943-1.28619 3.30017-1.78973l4.36078-12.21027-12-4-12 4 4.3595 12.2066c1.21014.50086 1.5617 1.7934 3.31488 1.7934z" fill="#606668"/><path d="m16 43.333-1-.333-1 .333v15.667h2z" fill="#8c9193"/><path d="m59 44h-7v14h10v-8z" fill="#78e6f9"/><circle cx="55" cy="58" fill="#3f4e56" r="3"/><g fill="#8c9193"><path d="m24.00002 15h1.99902v2h-1.99902z"/><path d="m28.00002 15h1.99902v2h-1.99902z"/><path d="m32.00002 15h1.99902v2h-1.99902z"/><path d="m36.00002 15h1.99902v2h-1.99902z"/><path d="m53.98193 16.00653-.70044-.70087c-.10778-.10785-.22564-.20263-.33728-.30566h-8.94421v2h9.98193z"/></g><path d="m30.989 20-3.997 9 2.998 1 6.996-10z" fill="#55d5f2"/><path d="m28 62a3.87971 3.87971 0 0 1 -2.84424-1.26514 1.87141 1.87141 0 0 0 -2.97314-.00048 3.82765 3.82765 0 0 1 -5.6875 0 1.87389 1.87389 0 0 0 -2.97559.00048 3.83356 3.83356 0 0 1 -5.69189 0 1.87908 1.87908 0 0 0 -2.98145.00049 3.88259 3.88259 0 0 1 -2.84619 1.26465v-2a1.94349 1.94349 0 0 0 1.49072-.73486 3.83521 3.83521 0 0 1 5.69336 0 1.877 1.877 0 0 0 2.979 0 3.83032 3.83032 0 0 1 5.68945.00049 1.87132 1.87132 0 0 0 2.97266 0 3.82867 3.82867 0 0 1 5.688-.00049 1.935 1.935 0 0 0 1.48681.73486z" fill="#4a98d3"/><path d="m40.001 15h1.99902v2h-1.99902z" fill="#8c9193"/><path d="m56 44v6h6l-3-6z" fill="#c8f0fc"/><path d="m36 41c0-.33759.03217-.667.05054-1h-4.05054v18h16.12622a17.993 17.993 0 0 1 -12.12622-17z" fill="#1493b0"/><path d="m15 5a7.968 7.968 0 0 1 .587-3h-2.587v10h6.13007a7.99538 7.99538 0 0 1 -4.13007-7z" fill="#55d5f2"/><path d="m15.35791 38h-4.35791v2h5.21729a8.91386 8.91386 0 0 1 -.85938-2z" fill="#8c9193"/><circle cx="40" cy="58" fill="#3f4e56" r="3"/></svg>
