<svg id="Layer_1" enable-background="new 0 0 512.012 512.012" height="250" viewBox="0 0 512.012 512.012" width="250" xmlns="http://www.w3.org/2000/svg"><g><path d="m510.983 214.184c-1.42-5.414 2.481 2.313-64.469-115.836-5.697-10.701-14.432-19.217-25.266-24.634l-97.67-48.83c-2.527-1.265 7.289-.845-131.577-.845-2.747 0 5.481-3.684-101.248 49.675-10.834 5.417-19.568 13.934-25.266 24.635l-61.512 108.557c-9.878 17.492-.624 40.272 19.788 44.979l80.239 18.52v193.636c0 13.233 10.766 24 24 24h256c13.233 0 24-10.767 24-24v-193.637l80.236-18.519c17.325-3.995 27.091-21.353 22.745-37.701z" fill="#f1cc76"/><path d="m488.241 251.889-80.24 18.51v193.64c0 13.23-10.77 24-24 24h-32c13.23 0 24-10.77 24-24v-193.64l80.24-18.51c17.317-3.998 27.098-21.367 22.74-37.71-1.42-5.421 2.484 2.316-64.47-115.83-5.69-10.7-14.43-19.22-25.26-24.64-106.555-53.272-98.517-49.67-101.25-49.67h32c2.749 0-5.285-3.592 101.25 49.67 10.83 5.42 19.57 13.94 25.26 24.64l61.51 108.54c9.887 17.508.632 40.288-19.78 45z" fill="#ebb15d"/><path d="m354.339 40.264-30.76-15.38c-5.31-2.653-11.578 1.207-11.578 7.155 0 14.965-5.823 29.029-16.397 39.603-35.386 35.389-95.603 9.854-95.603-39.603 0-5.937-6.261-9.815-11.578-7.155l-30.76 15.38c-3.128 1.564-4.878 4.979-4.32 8.432 12.843 79.439 108.627 115.306 170.373 62.219 18.637-16.024 31.046-38.12 34.941-62.219.56-3.453-1.19-6.868-4.318-8.432z" fill="#edebfd"/><path d="m244.621 86.879c-34.514 7.183-67.38-19.123-67.38-54.84 0-.51-.05-1.01-.14-1.5l11.32-5.66c5.281-2.64 11.58 1.177 11.58 7.16 0 27.592 19.708 49.75 44.62 54.84z" fill="#d2d2fc"/><path d="m358.661 48.699c-8.837 54.589-59.261 92.828-114.04 86.71 46.35-5.125 83.824-40.657 91.28-86.71.56-3.46-1.19-6.87-4.32-8.44l-19.44-9.72c1.014-5.265 6.726-7.998 11.44-5.66l30.76 15.38c3.13 1.57 4.88 4.981 4.32 8.44z" fill="#d2d2fc"/><path d="m400.001 285.188c-4.418 0-8-3.582-8-8v-64c0-4.418 3.582-8 8-8s8 3.582 8 8v64c0 4.418-3.582 8-8 8z" fill="#ebb15d"/><path d="m112.001 285.188c-4.418 0-8-3.582-8-8v-64c0-4.418 3.582-8 8-8s8 3.582 8 8v64c0 4.418-3.581 8-8 8z" fill="#ebb15d"/><path d="m320.001 24.039h-128c-4.418 0-8 3.582-8 8 0 39.805 32.189 72 72 72 39.806 0 72-32.189 72-72 0-4.418-3.582-8-8-8z" fill="#f1cc76"/><path d="m328.001 32.039c0 44.736-40.152 78.375-84 71.01 33.532-5.577 60-34.788 60-71.01 0-4.42-3.58-8-8-8h24c4.42 0 8 3.58 8 8z" fill="#ebb15d"/><path d="m352.001 240.039h-36c-37.495 0-68 30.505-68 68v20c0 4.418 3.582 8 8 8h36c37.495 0 68-30.505 68-68v-20c0-4.418-3.581-8-8-8z" fill="#79cb9c"/><path d="m360.001 248.039v20c0 37.5-30.5 68-68 68h-32c37.5 0 68-30.5 68-68v-20c0-4.42-3.58-8-8-8h32c4.42 0 8 3.58 8 8z" fill="#63ac7d"/><path d="m196.001 240.039h-36c-4.418 0-8 3.582-8 8v20c0 37.495 30.505 68 68 68h36c4.418 0 8-3.582 8-8v-20c0-37.495-30.505-68-68-68z" fill="#79cb9c"/><path d="m264.001 308.039v20c0 4.42-3.58 8-8 8h-32c4.42 0 8-3.58 8-8v-20c0-37.5-30.5-68-68-68h32c37.5 0 68 30.5 68 68z" fill="#63ac7d"/><path d="m310.147 282.918c-2.828-3.394-7.874-3.852-11.267-1.024l-34.879 29.066v-14.92c0-4.418-3.582-8-8-8s-8 3.582-8 8v14.92l-34.879-29.066c-3.393-2.828-8.438-2.371-11.267 1.024s-2.37 8.439 1.024 11.268l45.121 37.601v36.253c0 4.418 3.582 8 8 8s8-3.582 8-8v-36.253l45.121-37.601c3.396-2.829 3.855-7.874 1.026-11.268z" fill="#aa7569"/></g></svg>